<?xml version="1.0" encoding="utf-8"?>
<!-- Generator: Adobe Illustrator 16.0.0, SVG Export Plug-In . SVG Version: 6.00 Build 0)  -->
<!DOCTYPE svg PUBLIC "-//W3C//DTD SVG 1.1//EN" "http://www.w3.org/Graphics/SVG/1.1/DTD/svg11.dtd">
<svg version="1.1" id="Layer_1" xmlns="http://www.w3.org/2000/svg" xmlns:xlink="http://www.w3.org/1999/xlink" x="0px" y="0px"
	 width="100px" height="100px" viewBox="0 0 100 100" enable-background="new 0 0 100 100" xml:space="preserve">
<g>
	<polygon fill="#603813" points="50.779,19.06 46.427,95.454 54.892,95.454 	"/>
	<path fill="#603813" d="M51.985,65.727c1.939-1.689,18.137-13.539,18.137-13.539L51.746,70.328L51.985,65.727z"/>
	<polygon fill="#603813" points="50.295,57.507 50.056,61.136 27.807,48.563 	"/>
	<polygon fill="#603813" points="51.019,45.9 51.019,48.802 66.503,37.919 	"/>
	<polygon fill="#603813" points="50.295,34.05 40.14,28.731 50.54,37.196 	"/>
	<circle fill="#BFD74E" cx="73.51" cy="46.868" r="4.594"/>
	<path fill="#E29F37" d="M69.404,32.599c0,2.541-2.062,4.597-4.597,4.597c-2.54,0-4.597-2.056-4.597-4.597
		c0-2.54,2.057-4.591,4.597-4.591C67.343,28.008,69.404,30.059,69.404,32.599z"/>
	<path fill="#E29F37" d="M76.536,55.333c0,1.802-1.461,3.263-3.263,3.263c-1.808,0-3.269-1.461-3.269-3.263
		c0-1.808,1.461-3.268,3.269-3.268C75.075,52.065,76.536,53.525,76.536,55.333z"/>
	<path fill="#8A8A47" d="M32.159,42.755c0,2.805-2.275,5.08-5.075,5.08c-2.805,0-5.08-2.275-5.08-5.08
		c0-2.805,2.275-5.075,5.08-5.075C29.883,37.68,32.159,39.95,32.159,42.755z"/>
	<circle fill="#BFD74E" cx="55.859" cy="13.496" r="5.442"/>
	<path fill="#487F3F" d="M49.935,16.036c0,1.466-1.192,2.657-2.663,2.657c-1.466,0-2.657-1.191-2.657-2.657
		c0-1.471,1.191-2.662,2.657-2.662C48.743,13.374,49.935,14.564,49.935,16.036z"/>
	<path fill="#8A8A47" d="M72.185,39.248c0,1.471-1.191,2.662-2.663,2.662c-1.471,0-2.657-1.19-2.657-2.662
		c0-1.466,1.187-2.657,2.657-2.657C70.993,36.59,72.185,37.781,72.185,39.248z"/>
	<path fill="#BFD74E" d="M73.238,26.975c0,1.471-1.188,2.663-2.657,2.663c-1.472,0-2.663-1.191-2.663-2.663
		c0-1.466,1.191-2.657,2.663-2.657C72.051,24.317,73.238,25.509,73.238,26.975z"/>
	<path fill="#BFD74E" d="M76.938,21.609c0,1.471-1.192,2.662-2.662,2.662c-1.466,0-2.657-1.191-2.657-2.662s1.191-2.662,2.657-2.662
		C75.746,18.948,76.938,20.138,76.938,21.609z"/>
	<path fill="#8A8A47" d="M77.381,33.083c0,1.873-1.517,3.385-3.385,3.385c-1.873,0-3.385-1.512-3.385-3.385
		c0-1.868,1.512-3.385,3.385-3.385C75.864,29.698,77.381,31.215,77.381,33.083z"/>
	<path fill="#487F3F" d="M81.933,26.843c0,1.868-1.519,3.385-3.387,3.385c-1.872,0-3.389-1.517-3.389-3.385
		c0-1.869,1.517-3.386,3.389-3.386C80.414,23.457,81.933,24.974,81.933,26.843z"/>
	<path fill="#8A8A47" d="M59.728,31.149c0,1.868-1.517,3.385-3.385,3.385c-1.873,0-3.386-1.517-3.386-3.385
		c0-1.869,1.513-3.385,3.386-3.385C58.211,27.764,59.728,29.28,59.728,31.149z"/>
	<path fill="#487F3F" d="M58.517,22.928c0,1.868-1.513,3.385-3.381,3.385c-1.872,0-3.39-1.517-3.39-3.385s1.518-3.386,3.39-3.386
		C57.004,19.542,58.517,21.06,58.517,22.928z"/>
	<path fill="#BFD74E" d="M66.259,21.716c0,1.874-1.517,3.385-3.385,3.385c-1.869,0-3.385-1.512-3.385-3.385
		c0-1.868,1.516-3.385,3.385-3.385C64.742,18.332,66.259,19.849,66.259,21.716z"/>
	<path fill="#E29F37" d="M28.535,51.942c0,1.873-1.517,3.391-3.385,3.391c-1.873,0-3.39-1.518-3.39-3.391
		c0-1.868,1.517-3.379,3.39-3.379C27.018,48.563,28.535,50.074,28.535,51.942z"/>
	<path fill="#487F3F" d="M35.061,56.057c0,1.866-1.512,3.389-3.385,3.389c-1.869,0-3.386-1.522-3.386-3.389
		c0-1.869,1.517-3.387,3.386-3.387C33.549,52.67,35.061,54.188,35.061,56.057z"/>
	<path fill="#487F3F" d="M38.934,39.614c0,1.868-1.522,3.385-3.391,3.385c-1.868,0-3.385-1.517-3.385-3.385
		c0-1.868,1.517-3.386,3.385-3.386C37.412,36.229,38.934,37.746,38.934,39.614z"/>
	<path fill="#BFD74E" d="M23.693,35.741c0,1.873-1.512,3.385-3.38,3.385c-1.873,0-3.385-1.512-3.385-3.385
		c0-1.863,1.512-3.381,3.385-3.381C22.182,32.36,23.693,33.877,23.693,35.741z"/>
	<path fill="#8A8A47" d="M20.792,42.755c0,1.338-1.08,2.417-2.414,2.417c-1.338,0-2.422-1.079-2.422-2.417
		c0-1.333,1.084-2.418,2.422-2.418C19.713,40.336,20.792,41.421,20.792,42.755z"/>
	<path fill="#8A8A47" d="M33.854,27.764c0,1.333-1.084,2.417-2.418,2.417c-1.338,0-2.417-1.084-2.417-2.417
		c0-1.334,1.079-2.418,2.417-2.418C32.77,25.346,33.854,26.43,33.854,27.764z"/>
	<path fill="#8A8A47" d="M61.602,26.552c0,0.901-0.729,1.634-1.63,1.634c-0.905,0-1.634-0.733-1.634-1.634
		c0-0.895,0.729-1.628,1.634-1.628C60.873,24.924,61.602,25.657,61.602,26.552z"/>
	<path fill="#487F3F" d="M28.911,29.622c0,0.901-0.733,1.634-1.634,1.634c-0.901,0-1.629-0.733-1.629-1.634
		c0-0.896,0.728-1.629,1.629-1.629C28.178,27.993,28.911,28.726,28.911,29.622z"/>
	<path fill="#487F3F" d="M49.435,30.151c0,0.901-0.733,1.634-1.634,1.634c-0.896,0-1.628-0.733-1.628-1.634s0.733-1.629,1.628-1.629
		C48.702,28.522,49.435,29.25,49.435,30.151z"/>
	<path fill="#8A8A47" d="M47.002,20.632c0,0.901-0.733,1.634-1.628,1.634c-0.907,0-1.635-0.733-1.635-1.634
		c0-0.901,0.728-1.634,1.635-1.634C46.269,18.998,47.002,19.731,47.002,20.632z"/>
	<path fill="#487F3F" d="M50.281,22.322c0,0.901-0.728,1.634-1.629,1.634c-0.906,0-1.634-0.733-1.634-1.634
		c0-0.901,0.728-1.629,1.634-1.629C49.553,20.693,50.281,21.421,50.281,22.322z"/>
	<path fill="#BFD74E" d="M45.124,12.615c0,0.901-0.733,1.634-1.634,1.634c-0.901,0-1.629-0.733-1.629-1.634s0.728-1.628,1.629-1.628
		C44.391,10.986,45.124,11.714,45.124,12.615z"/>
	<circle fill="#8A8A47" cx="40.24" cy="14.463" r="1.632"/>
	<path fill="#487F3F" d="M41.52,10.609c0,0.896-0.728,1.629-1.628,1.629c-0.901,0-1.629-0.733-1.629-1.629
		c0-0.906,0.728-1.634,1.629-1.634C40.792,8.976,41.52,9.704,41.52,10.609z"/>
	<circle fill="#487F3F" cx="15.534" cy="38.509" r="1.634"/>
	<path fill="#E29F37" d="M27.853,57.344c0,0.9-0.733,1.629-1.629,1.629c-0.906,0-1.634-0.729-1.634-1.629s0.728-1.635,1.634-1.635
		C27.12,55.709,27.853,56.443,27.853,57.344z"/>
	<path fill="#BFD74E" d="M42.559,38.194c0,0.9-0.733,1.628-1.634,1.628c-0.896,0-1.634-0.728-1.634-1.628
		c0-0.901,0.738-1.634,1.634-1.634C41.826,36.56,42.559,37.293,42.559,38.194z"/>
	<path fill="#BFD74E" d="M38.853,34.387c0,0.895-0.728,1.628-1.628,1.628c-0.901,0-1.634-0.733-1.634-1.628
		c0-0.901,0.733-1.634,1.634-1.634C38.125,32.752,38.853,33.485,38.853,34.387z"/>
	<path fill="#487F3F" d="M38.114,30.787c0,0.901-0.733,1.634-1.634,1.634c-0.896,0-1.629-0.733-1.629-1.634
		c0-0.901,0.733-1.634,1.629-1.634C37.381,29.153,38.114,29.886,38.114,30.787z"/>
	<path fill="#BFD74E" d="M42.559,34.387c0,0.895-0.733,1.628-1.634,1.628c-0.896,0-1.634-0.733-1.634-1.628
		c0-0.901,0.738-1.634,1.634-1.634C41.826,32.752,42.559,33.485,42.559,34.387z"/>
	<circle fill="#487F3F" cx="45.686" cy="44.75" r="1.632"/>
	<circle fill="#487F3F" cx="53.836" cy="36.183" r="1.632"/>
	<path fill="#487F3F" d="M62.98,51.204c0,0.906-0.733,1.635-1.634,1.635c-0.901,0-1.634-0.729-1.634-1.635
		c0-0.9,0.732-1.628,1.634-1.628C62.247,49.576,62.98,50.304,62.98,51.204z"/>
	<path fill="#BFD74E" d="M70.382,13.755c0,0.896-0.733,1.629-1.629,1.629c-0.9,0-1.634-0.733-1.634-1.629
		c0-0.901,0.733-1.634,1.634-1.634C69.648,12.121,70.382,12.854,70.382,13.755z"/>
	<path fill="#487F3F" d="M70.493,22.857c0,0.896-0.737,1.628-1.639,1.628c-0.896,0-1.629-0.733-1.629-1.628
		c0-0.907,0.733-1.64,1.629-1.64C69.756,21.217,70.493,21.95,70.493,22.857z"/>
	<ellipse fill="#487F3F" cx="74.464" cy="38.723" rx="1.628" ry="1.634"/>
	<circle fill="#487F3F" cx="68.433" cy="57.13" r="1.634"/>
	<path fill="#487F3F" d="M66.89,60.729c0,0.901-0.732,1.629-1.629,1.629c-0.901,0-1.634-0.728-1.634-1.629
		c0-0.9,0.732-1.634,1.634-1.634C66.157,59.095,66.89,59.828,66.89,60.729z"/>
	<circle fill="#BFD74E" cx="63.037" cy="54.273" r="1.634"/>
	<circle fill="#8A8A47" cx="44.946" cy="38.932" r="1.634"/>
	<path fill="#BFD74E" d="M81.173,32.162c0,0.901-0.728,1.634-1.628,1.634c-0.901,0-1.635-0.733-1.635-1.634
		c0-0.896,0.733-1.629,1.635-1.629C80.445,30.533,81.173,31.266,81.173,32.162z"/>
	<circle fill="#E29F37" cx="30.665" cy="14.285" r="1.631"/>
	<path fill="#E29F37" d="M27.562,25.346c0,1.333-1.079,2.418-2.413,2.418c-1.338,0-2.422-1.085-2.422-2.418s1.084-2.417,2.422-2.417
		C26.483,22.928,27.562,24.012,27.562,25.346z"/>
	<path fill="#BFD74E" d="M37.962,14.224c0,1.333-1.079,2.418-2.418,2.418c-1.333,0-2.413-1.084-2.413-2.418
		c0-1.334,1.079-2.418,2.413-2.418C36.883,11.806,37.962,12.89,37.962,14.224z"/>
	<circle fill="#8A8A47" cx="47.638" cy="10.111" r="2.418"/>
	<path fill="#BFD74E" d="M64.563,6.965c0,1.339-1.084,2.423-2.418,2.423s-2.418-1.084-2.418-2.423c0-1.333,1.084-2.418,2.418-2.418
		S64.563,5.631,64.563,6.965z"/>
	<path fill="#E29F37" d="M66.742,15.19c0,1.334-1.084,2.418-2.418,2.418c-1.339,0-2.423-1.084-2.423-2.418
		c0-1.333,1.084-2.423,2.423-2.423C65.658,12.768,66.742,13.857,66.742,15.19z"/>
	<path fill="#8A8A47" d="M72.063,18.332c0,1.338-1.085,2.418-2.419,2.418c-1.338,0-2.418-1.08-2.418-2.418
		c0-1.334,1.08-2.418,2.418-2.418C70.978,15.914,72.063,16.998,72.063,18.332z"/>
	<circle fill="#BFD74E" cx="65.048" cy="42.516" r="2.418"/>
	<path fill="#487F3F" d="M63.597,46.628c0,1.333-1.085,2.413-2.418,2.413c-1.339,0-2.418-1.079-2.418-2.413
		c0-1.338,1.079-2.423,2.418-2.423C62.512,44.205,63.597,45.29,63.597,46.628z"/>
	<path fill="#487F3F" d="M81.978,52.427c0,1.338-1.084,2.423-2.417,2.423c-1.34,0-2.419-1.085-2.419-2.423
		c0-1.329,1.079-2.414,2.419-2.414C80.894,50.013,81.978,51.098,81.978,52.427z"/>
	<path fill="#8A8A47" d="M82.187,37.563c0,1.426-1.15,2.581-2.575,2.581c-1.426,0-2.582-1.155-2.582-2.581
		c0-1.42,1.156-2.57,2.582-2.57C81.036,34.992,82.187,36.142,82.187,37.563z"/>
	<path fill="#BFD74E" d="M83.036,43.172c0,1.42-1.156,2.576-2.575,2.576c-1.426,0-2.582-1.156-2.582-2.576
		c0-1.42,1.156-2.576,2.582-2.576C81.88,40.596,83.036,41.752,83.036,43.172z"/>
	<path fill="#487F3F" d="M86.101,48.145c0,1.42-1.155,2.577-2.576,2.577c-1.419,0-2.575-1.156-2.575-2.577
		c0-1.425,1.156-2.575,2.575-2.575C84.945,45.57,86.101,46.72,86.101,48.145z"/>
	<path fill="#8A8A47" d="M44.101,42.851c0,1.425-1.155,2.581-2.581,2.581c-1.42,0-2.575-1.156-2.575-2.581
		c0-1.42,1.155-2.576,2.575-2.576C42.945,40.275,44.101,41.431,44.101,42.851z"/>
	<path fill="#E29F37" d="M29.395,34.493c0,1.425-1.156,2.581-2.576,2.581c-1.425,0-2.576-1.156-2.576-2.581
		c0-1.42,1.151-2.576,2.576-2.576C28.239,31.917,29.395,33.073,29.395,34.493z"/>
	<path fill="#8A8A47" d="M24.208,29.418c0,1.42-1.15,2.575-2.575,2.575c-1.42,0-2.576-1.155-2.576-2.575
		c0-1.42,1.156-2.576,2.576-2.576C23.058,26.843,24.208,27.998,24.208,29.418z"/>
	<path fill="#BFD74E" d="M35.004,33.119c0,1.425-1.161,2.581-2.581,2.581c-1.42,0-2.575-1.156-2.575-2.581
		c0-1.42,1.155-2.576,2.575-2.576C33.843,30.543,35.004,31.699,35.004,33.119z"/>
	<path fill="#487F3F" d="M44.899,48.481c0,1.425-1.15,2.575-2.575,2.575c-1.42,0-2.576-1.15-2.576-2.575
		c0-1.42,1.156-2.576,2.576-2.576C43.75,45.905,44.899,47.061,44.899,48.481z"/>
	<path fill="#BFD74E" d="M60.695,37.435c0,1.333-1.085,2.423-2.419,2.423c-1.338,0-2.417-1.09-2.417-2.423s1.079-2.417,2.417-2.417
		C59.61,35.018,60.695,36.102,60.695,37.435z"/>
	<path fill="#BFD74E" d="M47.639,25.83c0,1.868-1.518,3.385-3.391,3.385c-1.868,0-3.385-1.517-3.385-3.385
		c0-1.873,1.517-3.385,3.385-3.385C46.121,22.444,47.639,23.957,47.639,25.83z"/>
	<path fill="#487F3F" d="M43.042,19.782c0,1.868-1.517,3.385-3.385,3.385c-1.874,0-3.391-1.517-3.391-3.385
		c0-1.868,1.517-3.385,3.391-3.385C41.525,16.397,43.042,17.914,43.042,19.782z"/>
	<circle fill="#BFD74E" cx="31.191" cy="20.75" r="4.113"/>
	<path fill="#BFD74E" d="M39.412,46.868c0,1.868-1.511,3.385-3.38,3.385c-1.873,0-3.39-1.517-3.39-3.385s1.517-3.385,3.39-3.385
		C37.901,43.482,39.412,45,39.412,46.868z"/>
	<path fill="#E29F37" d="M39.657,26.313c0,1.466-1.192,2.657-2.663,2.657c-1.466,0-2.657-1.191-2.657-2.657s1.191-2.663,2.657-2.663
		C38.465,23.65,39.657,24.847,39.657,26.313z"/>
	<path fill="#8A8A47" d="M68.672,50.252c0,1.471-1.191,2.657-2.657,2.657c-1.472,0-2.657-1.186-2.657-2.657
		c0-1.466,1.186-2.657,2.657-2.657C67.48,47.596,68.672,48.787,68.672,50.252z"/>
</g>
</svg>
